<svg xmlns="http://www.w3.org/2000/svg" viewBox="0 0 344.25 100"><path d="M0 0L100 0L100 100L0 100ZM87.2 67.3L100 67.3L100 80.1L87.2 80.1Z" fill="#f59e0b" fill-rule="evenodd"/><path d="M23.69 80.10L12.00 80.10L27.82 19.90L47.60 19.90L63.43 80.10L51.73 80.10L48.46 66.86L26.96 66.86L23.69 80.10ZM36.94 27.04L29.63 56.36L45.80 56.36L38.49 27.04L36.94 27.04ZM82.00 80.10L70.65 80.10L70.65 19.90L82.00 19.90L82.00 80.10Z" fill="#000000"/><path d="M148.32 53.90L141.90 53.90L141.90 25.73L132.00 25.73L132.00 19.90L158.22 19.90L158.22 25.73L148.32 25.73L148.32 53.90ZM169.49 53.90L163.08 53.90L163.08 19.90L177.85 19.90Q181.05 19.90 183.43 21.02Q185.81 22.13 187.12 24.17Q188.44 26.21 188.44 28.98L188.44 28.98L188.44 29.57Q188.44 32.63 186.98 34.52Q185.52 36.41 183.38 37.29L183.38 37.29L183.38 38.16Q185.33 38.26 186.40 39.50Q187.46 40.74 187.46 42.78L187.46 42.78L187.46 53.90L181.05 53.90L181.05 43.70Q181.05 42.53 180.45 41.81Q179.84 41.08 178.43 41.08L178.43 41.08L169.49 41.08L169.49 53.90ZM169.49 25.73L169.49 35.25L177.17 35.25Q179.45 35.25 180.74 34.01Q182.02 32.77 182.02 30.73L182.02 30.73L182.02 30.25Q182.02 28.21 180.76 26.97Q179.50 25.73 177.17 25.73L177.17 25.73L169.49 25.73ZM198.54 53.90L191.93 53.90L200.87 19.90L212.04 19.90L220.98 53.90L214.37 53.90L212.53 46.42L200.38 46.42L198.54 53.90ZM206.02 23.93L201.89 40.49L211.02 40.49L206.89 23.93L206.02 23.93ZM231.96 53.90L225.54 53.90L225.54 19.90L231.96 19.90L231.96 53.90ZM245.17 53.90L238.85 53.90L238.85 19.90L251.04 19.90L257.80 49.53L258.67 49.53L258.67 19.90L264.98 19.90L264.98 53.90L252.79 53.90L246.04 24.27L245.17 24.27L245.17 53.90ZM278.29 53.90L271.88 53.90L271.88 19.90L278.29 19.90L278.29 53.90ZM291.50 53.90L285.19 53.90L285.19 19.90L297.38 19.90L304.13 49.53L305.01 49.53L305.01 19.90L311.32 19.90L311.32 53.90L299.13 53.90L292.38 24.27L291.50 24.27L291.50 53.90ZM329.97 54.58L329.97 54.58Q326.48 54.58 323.63 53.00Q320.79 51.42 319.12 48.39Q317.44 45.35 317.44 40.98L317.44 40.98L317.44 32.82Q317.44 26.26 321.13 22.74Q324.82 19.22 331.14 19.22L331.14 19.22Q337.40 19.22 340.83 22.55Q344.25 25.87 344.25 31.56L344.25 31.56L344.25 31.75L337.94 31.75L337.94 31.36Q337.94 29.57 337.19 28.11Q336.43 26.65 334.93 25.80Q333.42 24.95 331.14 24.95L331.14 24.95Q327.74 24.95 325.80 27.04Q323.85 29.13 323.85 32.72L323.85 32.72L323.85 41.08Q323.85 44.62 325.80 46.78Q327.74 48.95 331.24 48.95L331.24 48.95Q334.73 48.95 336.34 47.10Q337.94 45.25 337.94 42.44L337.94 42.44L337.94 41.95L329.88 41.95L329.88 36.51L344.25 36.51L344.25 53.90L338.33 53.90L338.33 50.65L337.45 50.65Q337.11 51.47 336.36 52.39Q335.61 53.32 334.10 53.95Q332.60 54.58 329.97 54.58Z" fill="#000000"/><path d="M135.77 80.10L132.00 80.10L132.00 60.10L135.77 60.10L135.77 80.10ZM152.22 80.10L148.50 80.10L148.50 60.10L155.67 60.10L159.64 77.53L160.16 77.53L160.16 60.10L163.87 60.10L163.87 80.10L156.70 80.10L152.73 62.67L152.22 62.67L152.22 80.10ZM184.26 80.10L176.04 80.10L176.04 76.79L178.66 76.79L178.66 63.41L176.04 63.41L176.04 60.10L184.26 60.10Q188.29 60.10 190.39 62.14Q192.49 64.19 192.49 68.21L192.49 68.21L192.49 71.99Q192.49 76.01 190.39 78.06Q188.29 80.10 184.26 80.10L184.26 80.10ZM182.44 63.53L182.44 76.67L184.32 76.67Q186.61 76.67 187.66 75.47Q188.72 74.27 188.72 72.10L188.72 72.10L188.72 68.10Q188.72 65.90 187.66 64.71Q186.61 63.53 184.32 63.53L184.32 63.53L182.44 63.53ZM212.37 80.50L212.37 80.50Q208.60 80.50 206.37 78.43Q204.14 76.36 204.14 72.50L204.14 72.50L204.14 67.70Q204.14 63.84 206.37 61.77Q208.60 59.70 212.37 59.70L212.37 59.70Q216.14 59.70 218.37 61.77Q220.60 63.84 220.60 67.70L220.60 67.70L220.60 72.50Q220.60 76.36 218.37 78.43Q216.14 80.50 212.37 80.50ZM212.37 77.13L212.37 77.13Q214.48 77.13 215.66 75.90Q216.83 74.67 216.83 72.61L216.83 72.61L216.83 67.59Q216.83 65.53 215.66 64.30Q214.48 63.07 212.37 63.07L212.37 63.07Q210.28 63.07 209.10 64.30Q207.91 65.53 207.91 67.59L207.91 67.59L207.91 72.61Q207.91 74.67 209.10 75.90Q210.28 77.13 212.37 77.13ZM236.59 80.10L232.88 80.10L232.88 60.10L240.05 60.10L244.02 77.53L244.53 77.53L244.53 60.10L248.25 60.10L248.25 80.10L241.08 80.10L237.10 62.67L236.59 62.67L236.59 80.10ZM274.01 80.10L260.98 80.10L260.98 60.10L273.84 60.10L273.84 63.53L264.75 63.53L264.75 68.30L273.04 68.30L273.04 71.73L264.75 71.73L264.75 76.67L274.01 76.67L274.01 80.10ZM292.72 80.50L292.72 80.50Q290.40 80.50 288.63 79.67Q286.86 78.84 285.86 77.30Q284.86 75.76 284.86 73.59L284.86 73.59L284.86 72.79L288.57 72.79L288.57 73.59Q288.57 75.39 289.69 76.29Q290.80 77.19 292.72 77.19L292.72 77.19Q294.66 77.19 295.62 76.41Q296.57 75.64 296.57 74.44L296.57 74.44Q296.57 73.61 296.10 73.10Q295.63 72.59 294.73 72.26Q293.83 71.93 292.54 71.64L292.54 71.64L291.89 71.50Q289.83 71.04 288.36 70.34Q286.89 69.64 286.10 68.50Q285.32 67.36 285.32 65.53L285.32 65.53Q285.32 63.70 286.19 62.40Q287.06 61.10 288.64 60.40Q290.23 59.70 292.37 59.70L292.37 59.70Q294.52 59.70 296.19 60.43Q297.86 61.16 298.82 62.60Q299.77 64.04 299.77 66.21L299.77 66.21L299.77 67.07L296.06 67.07L296.06 66.21Q296.06 65.07 295.62 64.37Q295.17 63.67 294.34 63.34Q293.52 63.01 292.37 63.01L292.37 63.01Q290.66 63.01 289.84 63.66Q289.03 64.30 289.03 65.41L289.03 65.41Q289.03 66.16 289.42 66.67Q289.80 67.19 290.57 67.53Q291.34 67.87 292.54 68.13L292.54 68.13L293.20 68.27Q295.34 68.73 296.93 69.44Q298.52 70.16 299.40 71.33Q300.29 72.50 300.29 74.33L300.29 74.33Q300.29 76.16 299.36 77.54Q298.43 78.93 296.73 79.71Q295.03 80.50 292.72 80.50ZM315.82 80.10L312.05 80.10L312.05 60.10L315.82 60.10L315.82 80.10ZM331.07 80.10L327.18 80.10L332.44 60.10L339.01 60.10L344.27 80.10L340.38 80.10L339.30 75.70L332.16 75.70L331.07 80.10ZM335.47 62.47L333.04 72.21L338.41 72.21L335.98 62.47L335.47 62.47Z" fill="#000000"/></svg>
