<svg xmlns="http://www.w3.org/2000/svg" viewBox="0 0 174.8 174.5"><g transform="translate(37.4,0)"><path d="M0 0L100 0L100 100L0 100ZM87.2 67.3L100 67.3L100 80.1L87.2 80.1Z" fill="#f59e0b" fill-rule="evenodd"/><path d="M23.69 80.10L12.00 80.10L27.82 19.90L47.60 19.90L63.43 80.10L51.73 80.10L48.46 66.86L26.96 66.86L23.69 80.10ZM36.94 27.04L29.63 56.36L45.80 56.36L38.49 27.04L36.94 27.04ZM82.00 80.10L70.65 80.10L70.65 19.90L82.00 19.90L82.00 80.10Z" fill="#000000"/></g><path d="M13.44 152L8.16 152L8.16 128.80L0 128.80L0 124L21.60 124L21.60 128.80L13.44 128.80L13.44 152ZM30.88 152L25.60 152L25.60 124L37.76 124Q40.40 124 42.36 124.92Q44.32 125.84 45.40 127.52Q46.48 129.20 46.48 131.48L46.48 131.48L46.48 131.96Q46.48 134.48 45.28 136.04Q44.08 137.60 42.32 138.32L42.32 138.32L42.32 139.04Q43.92 139.12 44.80 140.14Q45.68 141.16 45.68 142.84L45.68 142.84L45.68 152L40.40 152L40.40 143.60Q40.40 142.64 39.90 142.04Q39.40 141.44 38.24 141.44L38.24 141.44L30.88 141.44L30.88 152ZM30.88 128.80L30.88 136.64L37.20 136.64Q39.08 136.64 40.14 135.62Q41.20 134.60 41.20 132.92L41.20 132.92L41.20 132.52Q41.20 130.84 40.16 129.82Q39.12 128.80 37.20 128.80L37.20 128.80L30.88 128.80ZM54.80 152L49.36 152L56.72 124L65.92 124L73.28 152L67.84 152L66.32 145.84L56.32 145.84L54.80 152ZM60.96 127.32L57.56 140.96L65.08 140.96L61.68 127.32L60.96 127.32ZM82.32 152L77.04 152L77.04 124L82.32 124L82.32 152ZM93.20 152L88.00 152L88.00 124L98.04 124L103.60 148.40L104.32 148.40L104.32 124L109.52 124L109.52 152L99.48 152L93.92 127.60L93.20 127.60L93.20 152ZM120.48 152L115.20 152L115.20 124L120.48 124L120.48 152ZM131.36 152L126.16 152L126.16 124L136.20 124L141.76 148.40L142.48 148.40L142.48 124L147.68 124L147.68 152L137.64 152L132.08 127.60L131.36 127.60L131.36 152ZM163.04 152.56L163.04 152.56Q160.16 152.56 157.82 151.26Q155.48 149.96 154.10 147.46Q152.72 144.96 152.72 141.36L152.72 141.36L152.72 134.64Q152.72 129.24 155.76 126.34Q158.80 123.44 164.00 123.44L164.00 123.44Q169.16 123.44 171.98 126.18Q174.80 128.92 174.80 133.60L174.80 133.60L174.80 133.76L169.60 133.76L169.60 133.44Q169.60 131.96 168.98 130.76Q168.36 129.56 167.12 128.86Q165.88 128.16 164.00 128.16L164.00 128.16Q161.20 128.16 159.60 129.88Q158.00 131.60 158.00 134.56L158.00 134.56L158.00 141.44Q158.00 144.36 159.60 146.14Q161.20 147.92 164.08 147.92L164.08 147.92Q166.96 147.92 168.28 146.40Q169.60 144.88 169.60 142.56L169.60 142.56L169.60 142.16L162.96 142.16L162.96 137.68L174.80 137.68L174.80 152L169.92 152L169.92 149.32L169.20 149.32Q168.92 150 168.30 150.76Q167.68 151.52 166.44 152.04Q165.20 152.56 163.04 152.56Z" fill="#000000"/><path d="M3.11 174.50L-0.00 174.50L-0.00 158L3.11 158L3.11 174.50ZM16.64 174.50L13.58 174.50L13.58 158L19.49 158L22.77 172.38L23.19 172.38L23.19 158L26.26 158L26.26 174.50L20.34 174.50L17.06 160.12L16.64 160.12L16.64 174.50ZM43.04 174.50L36.25 174.50L36.25 171.77L38.42 171.77L38.42 160.73L36.25 160.73L36.25 158L43.04 158Q46.37 158 48.10 159.69Q49.83 161.37 49.83 164.69L49.83 164.69L49.83 167.81Q49.83 171.13 48.10 172.81Q46.37 174.50 43.04 174.50L43.04 174.50ZM41.53 160.83L41.53 171.67L43.09 171.67Q44.97 171.67 45.85 170.68Q46.72 169.69 46.72 167.90L46.72 167.90L46.72 164.60Q46.72 162.78 45.85 161.81Q44.97 160.83 43.09 160.83L43.09 160.83L41.53 160.83ZM66.19 174.83L66.19 174.83Q63.08 174.83 61.24 173.12Q59.40 171.41 59.40 168.23L59.40 168.23L59.40 164.27Q59.40 161.09 61.24 159.38Q63.08 157.67 66.19 157.67L66.19 157.67Q69.30 157.67 71.14 159.38Q72.98 161.09 72.98 164.27L72.98 164.27L72.98 168.23Q72.98 171.41 71.14 173.12Q69.30 174.83 66.19 174.83ZM66.19 172.05L66.19 172.05Q67.94 172.05 68.90 171.03Q69.87 170.02 69.87 168.32L69.87 168.32L69.87 164.18Q69.87 162.48 68.90 161.47Q67.94 160.45 66.19 160.45L66.19 160.45Q64.47 160.45 63.49 161.47Q62.51 162.48 62.51 164.18L62.51 164.18L62.51 168.32Q62.51 170.02 63.49 171.03Q64.47 172.05 66.19 172.05ZM86.13 174.50L83.07 174.50L83.07 158L88.99 158L92.26 172.38L92.69 172.38L92.69 158L95.75 158L95.75 174.50L89.84 174.50L86.56 160.12L86.13 160.12L86.13 174.50ZM116.97 174.50L106.22 174.50L106.22 158L116.83 158L116.83 160.83L109.33 160.83L109.33 164.76L116.17 164.76L116.17 167.59L109.33 167.59L109.33 171.67L116.97 171.67L116.97 174.50ZM132.36 174.83L132.36 174.83Q130.45 174.83 128.99 174.15Q127.53 173.46 126.71 172.19Q125.88 170.92 125.88 169.13L125.88 169.13L125.88 168.47L128.94 168.47L128.94 169.13Q128.94 170.61 129.86 171.35Q130.78 172.10 132.36 172.10L132.36 172.10Q133.97 172.10 134.76 171.46Q135.54 170.82 135.54 169.83L135.54 169.83Q135.54 169.15 135.16 168.72Q134.77 168.30 134.02 168.03Q133.28 167.76 132.22 167.52L132.22 167.52L131.68 167.41Q129.98 167.03 128.77 166.45Q127.55 165.87 126.91 164.93Q126.26 163.99 126.26 162.48L126.26 162.48Q126.26 160.97 126.98 159.90Q127.70 158.82 129.00 158.25Q130.31 157.67 132.08 157.67L132.08 157.67Q133.85 157.67 135.23 158.27Q136.61 158.87 137.40 160.06Q138.18 161.25 138.18 163.04L138.18 163.04L138.18 163.75L135.12 163.75L135.12 163.04Q135.12 162.10 134.76 161.52Q134.39 160.95 133.71 160.68Q133.02 160.40 132.08 160.40L132.08 160.40Q130.67 160.40 129.99 160.93Q129.32 161.47 129.32 162.38L129.32 162.38Q129.32 163.00 129.64 163.42Q129.96 163.85 130.59 164.13Q131.23 164.41 132.22 164.62L132.22 164.62L132.76 164.74Q134.53 165.12 135.84 165.71Q137.15 166.30 137.88 167.26Q138.61 168.23 138.61 169.74L138.61 169.74Q138.61 171.25 137.84 172.39Q137.08 173.53 135.67 174.18Q134.27 174.83 132.36 174.83ZM151.39 174.50L148.28 174.50L148.28 158L151.39 158L151.39 174.50ZM163.93 174.50L160.72 174.50L165.06 158L170.48 158L174.82 174.50L171.61 174.50L170.72 170.87L164.83 170.87L163.93 174.50ZM167.56 159.96L165.56 167.99L169.99 167.99L167.98 159.96L167.56 159.96Z" fill="#000000"/></svg>
