<svg xmlns="http://www.w3.org/2000/svg" width="390" height="97" fill="none" viewBox="0 0 390 97"><path fill="#00ADC6" fill-rule="evenodd" d="M156.396 59.4742C155.391 59.4742 154.506 59.6416 153.756 59.973C153.113 60.2609 152.42 60.6677 151.697 61.1832C150.976 61.6971 150.581 61.9281 150.377 62.0285C149.121 62.6562 147.086 62.9759 144.326 62.9759C140.618 62.9759 137.669 61.7054 135.306 59.0926C132.902 56.4413 131.734 53.169 131.734 49.0932C131.734 44.835 132.885 41.5058 135.254 38.913C137.589 36.3588 140.767 35.1185 144.972 35.1185C145.598 35.1185 146.473 35.234 147.571 35.4566C148.894 35.7278 149.58 35.9889 149.858 36.1261C150.34 36.3956 150.847 36.7387 151.362 37.1438C152.04 37.6794 152.752 38.1163 153.475 38.441C154.29 38.8093 155.278 38.99 156.489 38.99C158.232 38.99 159.723 38.2653 160.808 36.8944C161.815 35.6106 162.326 34.1042 162.326 32.4136C162.326 29.1128 160.438 26.4749 156.712 24.5751C153.316 22.846 148.838 21.969 143.403 21.969C138.486 21.969 134.01 23.1406 130.103 25.4505C126.192 27.7671 123.103 31.0176 120.926 35.1151C118.76 39.1859 117.662 43.8876 117.662 49.0932C117.662 54.103 118.708 58.7193 120.772 62.8102C122.854 66.9462 125.847 70.2352 129.666 72.5836C133.484 74.9336 137.95 76.1254 142.943 76.1254C146.254 76.1254 149.426 75.7203 152.37 74.9219C155.365 74.1068 157.828 72.9836 159.698 71.5843C161.809 70.0009 162.88 68.1999 162.88 66.2331C162.88 64.3216 162.299 62.7114 161.153 61.4427C159.968 60.1371 158.367 59.4742 156.396 59.4742Z" clip-rule="evenodd"/><mask id="mask0" width="48" height="73" x="226" y="4" mask-type="alpha" maskUnits="userSpaceOnUse"><path fill="#fff" fill-rule="evenodd" d="M226.746 4H273.172V76.1214H226.746V4Z" clip-rule="evenodd"/></mask><g mask="url(#mask0)"><path fill="#00ADC6" fill-rule="evenodd" d="M254.34 46.6002L267.118 34.84C268.926 33.2549 269.845 31.4789 269.845 29.5574C269.845 28.0007 269.162 26.4893 267.819 25.0665C266.452 23.622 264.858 22.8906 263.086 22.8906C261.141 22.8906 259.419 23.627 257.982 25.0649L240.816 41.6708V11.1286C240.816 9.13344 240.148 7.43284 238.822 6.06867C237.488 4.69614 235.791 3.99983 233.781 3.99983C231.77 3.99983 230.073 4.69614 228.739 6.06867C227.415 7.43116 226.746 9.13176 226.746 11.1286V68.9926C226.746 70.9894 227.417 72.6917 228.737 74.0492C230.07 75.4251 231.767 76.1214 233.781 76.1214C235.793 76.1214 237.49 75.4251 238.824 74.0509C240.148 72.69 240.816 70.9878 240.816 68.9926V59.0618L243.752 56.367L260.87 73.7446C262.269 75.2995 264.01 76.0862 266.045 76.0862C267.766 76.0862 269.386 75.4351 270.859 74.1496C272.394 72.8122 273.172 71.1267 273.172 69.1432C273.172 67.2167 272.444 65.4742 271.025 63.9761L254.34 46.6002Z" clip-rule="evenodd"/></g><path fill="#00ADC6" fill-rule="evenodd" d="M375.944 49.0015C375.944 53.0906 374.826 56.3881 372.526 59.0796C370.286 61.7008 367.496 62.9762 363.996 62.9762C360.433 62.9762 357.612 61.7024 355.374 59.0796C353.074 56.3897 351.958 53.0923 351.958 49.0015C351.958 44.914 353.073 41.6333 355.369 38.9736C357.609 36.3792 360.429 35.1188 363.996 35.1188C367.558 35.1188 370.363 36.3775 372.571 38.9669C374.841 41.6283 375.944 44.9123 375.944 49.0015ZM386.392 35.1339C384.28 31.0414 381.357 27.7908 377.705 25.4743C374.031 23.1493 369.886 21.9693 365.379 21.9693C362.259 21.9693 359.234 22.7242 356.387 24.2139C354.673 25.1127 353.173 26.1137 351.901 27.2117C351.568 26.3832 351.228 21.9693 345.382 21.9693C343.37 21.9693 341.672 22.6656 340.34 24.0381C339.016 25.399 338.347 28.0235 338.347 30.0187V86.5051C338.347 88.5723 339.021 90.2946 340.355 91.6253C341.686 92.9593 343.378 93.6339 345.382 93.6339C347.392 93.6339 349.087 92.9376 350.427 91.5634C351.747 90.2009 352.417 88.5003 352.417 86.5051V71.6834C353.719 72.6174 355.177 73.456 356.78 74.1908C359.577 75.4746 362.594 76.1257 365.747 76.1257C370.137 76.1257 374.21 74.944 377.847 72.6157C381.471 70.3008 384.363 67.0302 386.444 62.9026C388.508 58.8067 389.554 54.1301 389.554 49.0015C389.554 43.8696 388.491 39.2029 386.392 35.1339Z" clip-rule="evenodd"/><path fill="#00ADC6" fill-rule="evenodd" d="M313.738 49.093C313.738 53.1805 312.643 56.4612 310.39 59.1209C308.193 61.7153 305.424 62.9757 301.924 62.9757C298.429 62.9757 295.678 61.717 293.512 59.1276C291.285 56.4679 290.203 53.1855 290.203 49.093C290.203 45.0022 291.301 41.7048 293.555 39.015C295.753 36.3921 298.49 35.1183 301.924 35.1183C305.419 35.1183 308.188 36.3938 310.385 39.015C312.642 41.7065 313.738 45.0039 313.738 49.093ZM325.791 23.9757C324.457 22.6433 322.767 21.9688 320.765 21.9688C318.753 21.9688 317.056 22.6651 315.723 24.0376C315.04 24.739 314.533 25.5307 314.2 26.4061C312.739 25.3616 311.09 24.4544 309.272 23.6979C306.519 22.5513 303.531 21.9688 300.399 21.9688C296.012 21.9688 291.942 23.1505 288.299 25.4788C284.676 27.797 281.782 31.0643 279.703 35.192C277.64 39.2878 276.594 43.9645 276.594 49.093C276.594 54.2283 277.657 58.8933 279.755 62.9606C281.867 67.0548 284.789 70.3054 288.443 72.6203C292.111 74.9452 296.258 76.1252 300.768 76.1252C303.868 76.1252 306.864 75.439 309.669 74.0882C311.462 73.2228 313.033 72.2286 314.369 71.1155C314.389 72.2135 316.202 76.1202 320.765 76.1202C322.775 76.1202 324.472 75.4239 325.808 74.0514C327.13 72.6906 327.8 70.9883 327.8 68.9931V29.0976C327.8 27.0338 327.125 25.3114 325.793 23.9774L325.791 23.9757Z" clip-rule="evenodd"/><path fill="#00ADC6" fill-rule="evenodd" d="M202.133 49.093C202.133 53.1805 201.038 56.4612 198.785 59.1209C196.588 61.7153 193.819 62.9757 190.319 62.9757C186.824 62.9757 184.073 61.717 181.907 59.1276C179.68 56.4679 178.598 53.1855 178.598 49.093C178.598 45.0022 179.696 41.7048 181.95 39.015C184.148 36.3921 186.885 35.1183 190.319 35.1183C193.814 35.1183 196.583 36.3938 198.78 39.015C201.037 41.7065 202.133 45.0039 202.133 49.093ZM214.186 23.9757C212.852 22.6433 211.162 21.9688 209.16 21.9688C207.148 21.9688 205.451 22.6651 204.118 24.0376C203.435 24.739 202.928 25.5307 202.595 26.4061C201.134 25.3616 199.485 24.4544 197.667 23.6979C194.914 22.5513 191.926 21.9688 188.794 21.9688C184.407 21.9688 180.337 23.1505 176.694 25.4788C173.071 27.797 170.177 31.0643 168.098 35.192C166.036 39.2878 164.989 43.9645 164.989 49.093C164.989 54.2283 166.052 58.8933 168.15 62.9606C170.262 67.0548 173.184 70.3054 176.838 72.6203C180.506 74.9452 184.653 76.1252 189.163 76.1252C192.263 76.1252 195.259 75.439 198.064 74.0882C199.857 73.2228 201.428 72.2286 202.764 71.1155C202.784 72.2135 204.597 76.1202 209.16 76.1202C211.17 76.1202 212.867 75.4239 214.203 74.0514C215.525 72.6906 216.195 70.9883 216.195 68.9931V29.0976C216.195 27.0338 215.52 25.3114 214.188 23.9774L214.186 23.9757Z" clip-rule="evenodd"/><path fill="#0069B1" fill-rule="evenodd" d="M96.568 48.2847C96.568 74.952 74.9506 96.5694 48.2833 96.5694C21.6177 96.5694 0.000305176 74.952 0.000305176 48.2847C0.000305176 21.6174 21.6177 0 48.2833 0C74.9506 0 96.568 21.6174 96.568 48.2847Z" clip-rule="evenodd"/><path fill="#00ADC6" fill-rule="evenodd" d="M96.5615 48.2847C96.5615 65.7259 87.3203 80.9911 73.4611 89.4757L39.6165 77.61H39.6014L36.6203 76.5706C36.5885 76.5388 36.5383 76.5203 36.4864 76.5036C36.2688 76.4216 36.0529 76.3212 35.8186 76.204C35.6662 76.1521 35.5156 76.1019 35.365 76.0182C35.1641 75.9194 34.9632 75.8358 34.7808 75.7504C34.1096 75.4173 33.4752 75.0825 32.8392 74.6959C32.6216 74.562 32.404 74.4281 32.2031 74.3126C30.7971 73.4405 29.4564 72.453 28.2194 71.3482C28.0504 71.1976 27.8679 71.0152 27.6989 70.8628C26.4602 69.7263 25.3388 68.4709 24.3027 67.1319C24.1504 66.9143 23.9997 66.7134 23.834 66.4774C23.4825 65.9937 23.1477 65.4899 22.828 64.9727L22.7795 64.9208C22.2271 64.2345 21.7919 63.4495 21.489 62.5791C19.3816 58.4431 18.225 53.7246 18.225 48.7199V48.5023C18.225 35.9486 25.4576 25.0688 36.6873 20.4658L39.5662 19.4598L73.9649 7.41C87.5379 15.9297 96.5615 31.0611 96.5615 48.2847Z" clip-rule="evenodd"/><path fill="#FEFEFE" fill-rule="evenodd" d="M71.6668 66.1263C71.6668 68.319 70.6675 70.0547 69.2481 71.3687C64.3739 75.8227 58.149 78.854 48.5931 78.854C48.1027 78.854 47.6106 78.854 47.1386 78.8372C46.5243 78.8021 45.9452 78.7686 45.3493 78.7151C44.894 78.6615 44.4555 78.6096 44.0153 78.5393C43.8763 78.5393 43.7357 78.5058 43.5951 78.4874C43.1398 78.4171 42.6846 78.3468 42.246 78.2414C41.8075 78.1711 41.3689 78.0673 40.9471 77.9602C40.4919 77.8564 40.0533 77.7342 39.6165 77.6103C39.4926 77.5752 39.3888 77.5568 39.2666 77.5049C38.8264 77.3827 38.3879 77.2254 37.9493 77.0663C37.6865 76.996 37.4237 76.8923 37.1794 76.7868C36.7224 76.6111 36.2671 76.4169 35.8102 76.2077C35.6713 76.1541 35.5122 76.1022 35.3716 76.0152C35.1624 75.9265 34.9699 75.8394 34.7774 75.7524C34.1113 75.4193 33.4802 75.0862 32.8308 74.6996C32.6199 74.559 32.4107 74.4368 32.1998 74.3146C30.7971 73.4375 29.4631 72.455 28.2194 71.3502C28.0437 71.1929 27.8679 71.0172 27.6938 70.8598C26.4653 69.7199 25.3438 68.4746 24.3094 67.1255C24.1504 66.9146 23.9947 66.7054 23.8357 66.4761C23.4859 65.9857 23.1528 65.4952 22.8364 64.9696L22.7845 64.9161C22.2221 64.2315 21.7836 63.4431 21.4873 62.5845C19.3833 58.4468 18.225 53.7299 18.225 48.7152V48.506C18.225 35.4769 26.01 24.2557 37.9677 19.979C41.2819 18.7856 44.9124 18.1362 48.8041 18.1362C57.6217 18.1362 63.8132 20.5214 68.7024 24.6607C69.8088 25.5545 71.3169 27.4995 71.3169 30.3216C71.3169 34.4777 67.9492 37.7399 63.8132 37.7399C61.6389 37.7399 60.0069 36.8629 59.0244 36.0912C56.0969 33.8115 53.0472 32.3921 48.6969 32.3921C40.4232 32.3921 34.5481 39.7033 34.5481 48.2766V48.506C34.5481 51.1874 35.0754 53.6948 36.0395 55.921C36.2671 56.4817 36.5483 57.009 36.8446 57.5345C36.9149 57.64 36.9685 57.7454 37.0388 57.8509C37.3886 58.4284 37.7753 58.9556 38.1954 59.4645C38.336 59.6737 38.5101 59.8494 38.6875 60.0419C38.7913 60.1641 38.9151 60.288 39.0189 60.4102C39.2114 60.5842 39.4056 60.7784 39.6165 60.9709C39.8441 61.1818 40.0901 61.3927 40.3529 61.6019C40.5454 61.7777 40.7731 61.9166 40.984 62.0572C41.071 62.1459 41.1765 62.2162 41.2986 62.2865C41.5263 62.4439 41.774 62.6029 42.0351 62.7435C42.2812 62.8991 42.544 63.023 42.8068 63.1619C43.5081 63.5134 44.2446 63.7929 45.0162 64.0039C45.3141 64.0926 45.6137 64.1796 45.9452 64.2499H45.9803C46.2598 64.3202 46.5779 64.3721 46.8925 64.424C46.998 64.4424 47.1018 64.4424 47.2089 64.4775C47.4349 64.4943 47.6458 64.5311 47.8918 64.5311C48.0659 64.5646 48.2601 64.5646 48.471 64.583C48.7522 64.6014 49.0317 64.6181 49.3296 64.6181C52.8714 64.6181 55.7638 63.6005 58.4118 61.8831C58.8152 61.6203 59.2353 61.3391 59.6387 61.0412C59.7441 60.9709 59.8328 60.9006 59.9182 60.8136C60.0253 60.7433 60.1291 60.673 60.2346 60.5842C60.34 60.4989 60.4455 60.4102 60.5861 60.3399C60.7083 60.2511 60.8489 60.1641 61.0062 60.0771C61.4799 59.8143 62.0239 59.5682 62.6365 59.3757C63.2675 59.1833 63.9521 59.0594 64.6886 59.0594C68.5986 59.0594 71.6668 62.2162 71.6668 66.1263Z" clip-rule="evenodd"/><path fill="#98C93C" fill-rule="evenodd" d="M37.0379 59.8658C37.0379 61.9882 36.2144 63.9165 34.8469 65.3376C33.4091 66.9143 31.3402 67.8968 29.0253 67.8968C26.518 67.8968 24.3102 66.7386 22.8372 64.9693L22.7837 64.9174C22.2213 64.2312 21.7844 63.4445 21.4865 62.5841C21.1718 61.7422 20.996 60.8132 20.996 59.8658C20.996 55.447 24.5897 51.8533 29.0253 51.8533C29.8321 51.8533 30.6205 51.9771 31.357 52.2232C33.3572 52.8174 35.0042 54.1849 36.0035 55.9558C36.6697 57.0973 37.0379 58.4464 37.0379 59.8658Z" clip-rule="evenodd"/></svg>