<svg xmlns="http://www.w3.org/2000/svg" xmlns:i="http://ns.adobe.com/AdobeIllustrator/10.0/" id="Layer_1" viewBox="0 0 480 174"><defs><style>      .st0 {        fill: #252122;      }      .st1 {        fill: #5bc8d9;      }      .st2 {        fill: #7cb041;      }      .st3 {        fill: #20bcd5;      }    </style></defs><g><g><path class="st3" d="M66.84,25.12c1.99.81,4.16.71,6.21,1.24,3.27.86,6.51,1.79,9.53,3.6-13.67-1.6-26.23.67-37.34,9.73,1.33.85,2.18.78,3.17.5,4.53-1.29,9.16-1.6,13.91-1.13-9.38,2.63-17.35,7.44-23.78,15.14,1.21.18,2.25.34,3.29.5,6.56,1.07,11.58,6.84,11.6,13.34.02,6.63-4.98,12.43-11.63,13.54-4.45.74-8.2-.65-11.51-3.56-.43-.38-.71-1.24-1.44-.9-.52.25-.38.99-.41,1.54-.73,10.68,1.61,20.57,7.68,29.48.2.29.39.58.57.87.17.29.32.59.49.92-8.28-1.56-20.15-21.83-20.53-35-.42-1.97.22-3.99-.35-5.95v-1.67c.4-6.03,1.99-11.72,4.81-17.07,6.34-11.99,16.08-19.82,29-23.78,2.74-.84,5.58-.87,8.37-1.33h8.36Z"></path><path class="st1" d="M16.3,68.98c.87,1.94.26,3.97.35,5.95-.13,0-.24-.03-.35-.11v-5.85h0Z"></path><path class="st2" d="M17.75,91.98c1.23.1,1.21,1.25,1.56,1.96,5.04,10.08,12.66,17.47,22.93,22.12,1.08.49,2.17.87,3.37.99,1.16.12,1.22-.43.76-1.19-.35-.58-.87-1.07-1.38-1.53-3.08-2.83-5.69-6.02-7.7-9.84,6.91,5.36,14.48,9.12,23.65,10.51-1.55-2.53-2.99-4.53-3.48-7.04-1.16-5.95,1.3-11.46,6.72-14.68,4.78-2.84,11.11-2.19,15.51,1.59,4.38,3.76,5.86,9.95,3.67,15.37-.08.19-.19.38-.25.57-.15.49-.76,1.01-.21,1.49.39.34.91-.05,1.36-.22,4.22-1.7,8.09-3.99,11.59-6.9,6.17-5.13,10.65-11.47,13.48-18.98.09-.24.04-.58.43-.6.83,19.23-14.18,42.11-39.82,45.55-27.14,3.65-48.98-15.92-52.18-39.17h0Z"></path><path class="st0" d="M102.68,114.47c9.18-11.11,11.83-29.48,8.13-38.56-.72,1.04-1.13,2.07-1.38,3.22-.83,3.89-2.19,7.6-4.12,11.08-.21.38-.34,1.11-.97.85-.77-.32-.02-.78.05-1.18,1.49-7.83.76-15.48-1.82-22.98-.12-.36-.2-.94-.72-.89-.53.05-.61.66-.86,1.06-3.15,5.06-7.67,7.61-13.65,6.91-5.36-.63-9.06-3.71-11.01-8.72-2.96-7.59,1.68-16.19,9.63-18.02.59-.14,1.25-.02,1.94-.76-10.75-8.1-22.68-10.91-35.87-8.98,15.19-8.16,30.65-8.65,45.59-.03,16.73,9.66,24.61,24.8,23.37,44.06-.88,13.66-7.32,24.7-18.31,32.93h0Z"></path></g><g><path class="st3" d="M271.91,54.75c-3.67,0-7.34,0-11.02,0-.62,0-1.1.18-1.57.6-6.98,6.02-13.96,12.05-20.98,18.02-3.55,3.01-6.9,6.25-10.7,8.97-.54-.15-.87.22-1.2.52-1.8,1.62-3.71,3.11-5.49,4.75-.84.77-1.95,1.29-2.38,2.45-.21.28-.38.6-.64.82-7.2,6.22-14.33,12.5-21.64,18.59-4.61,3.84-10.13,5.54-16.1,5.3-7.58-.32-13.91-3.53-19.18-8.94-.74-.77-.8-1.18.06-1.92,6.93-5.9,13.81-11.85,20.71-17.79,8.09-6.96,16.18-13.94,24.3-20.86.89-.76.94-1.2.1-2-1.61-1.52-3.16-3.11-4.89-4.5-8.46-6.79-18.09-9.23-28.71-7.43-6.99,1.18-12.85,4.78-17.96,9.58-9.21,8.66-12.4,19.28-10.2,31.61,1.75,9.76,7.01,17.36,14.66,23.46,11.26,8.99,28.19,9.6,40.08,1.46,4.88-3.34,9.02-7.57,13.6-11.27,1.89-1.53,3.51-3.4,5.7-4.56,2.18-1.01,3.72-2.85,5.5-4.35,1.26-1.06,2.8-1.87,3.59-3.43.08-.38.31-.58.69-.6,2.54-1.4,4.51-3.46,6.43-5.57.35-.78,1.04-1.23,1.66-1.77,11.67-10.05,23.34-20.1,35.01-30.16.26-.23.82-.32.55-.96h.02ZM156.83,97.35c-.95.83-1.34.77-1.79-.42-1.42-3.72-2.63-7.48-2.55-11.53.15-8.65,4.03-15.43,10.78-20.6,9.13-7.01,20.65-7.38,30.29-1.26,1.22.77,1.24,1.18.17,2.1-12.32,10.54-24.61,21.12-36.89,31.71h0Z"></path><path class="st0" d="M378.27,79.34c-3.35-12.8-15.58-24.86-30.53-26.12-10.05-.85-18.89,1.58-26.37,8.49-1.74,1.61-3.19,3.47-5.04,5.52,0-2.1.02-3.82,0-5.54-.02-2.26-.08-4.52-.12-6.78-2.31-.42-4.64,0-6.95-.21-1.53-.13-2.03.27-2.02,1.93.06,30.09.04,60.18.04,90.27,0,.29.03.59,0,.87-.11.83.21,1.11,1.06,1.09,2.16-.06,4.33-.09,6.49,0,1.22.06,1.55-.27,1.54-1.52-.05-11.08-.03-22.16-.03-33.24v-2.31c.82.87,1.34,1.42,1.85,1.97,10.42,11.53,25.41,14.28,38.6,9.31,16.96-6.39,26.25-25.57,21.48-43.75h0ZM370.44,89.9c-.27,13.26-11.52,27.52-27.94,27.19-15.37-.31-26.76-11.92-26.85-27.78-.09-15.41,12.23-28.13,27.36-27.59,16.19-.29,27.73,13.59,27.43,28.18Z"></path><path class="st0" d="M463.66,56.65c0-.29-.03-.59,0-.87.11-.87-.3-1.09-1.11-1.07-2.04.05-4.1.11-6.13-.02-1.4-.09-1.74.38-1.7,1.72.09,3.47.03,6.94.03,10.86-.81-.96-1.33-1.55-1.83-2.15-8.25-9.95-18.99-13.51-31.52-11.69-16.18,2.34-29.91,16.94-29.93,35.33-.02,9.81,3.24,18.38,9.96,25.67,11.79,12.78,32.14,14.7,46.06,4.23,2.56-1.92,4.86-4.11,6.91-6.6.56.59.34,1.13.34,1.63.02,2.74.07,5.48-.02,8.22-.04,1.3.22,1.88,1.68,1.76,1.8-.14,3.63-.17,5.43,0,1.65.16,1.86-.48,1.86-1.93-.05-21.7-.03-43.4-.03-65.09h0ZM427.29,117.09c-14.43-.32-26.73-12.8-26.73-27.72,0-16,11.99-27.67,28.42-27.65,14.81.02,26.34,12.22,26.33,27.88.22,17.88-14.62,27.78-28.02,27.49Z"></path><path class="st0" d="M290.21,89.19c0,10.9-.03,21.8.04,32.7,0,1.5-.41,1.88-1.84,1.78-1.74-.13-3.51-.13-5.25,0-1.54.12-2.04-.29-2.03-1.95.07-16.26.04-32.52.04-48.79v-15.39c0-1.89.91-2.83,2.73-2.83,1.58,0,3.16.1,4.73-.03,1.34-.11,1.62.34,1.62,1.63-.06,10.96-.03,21.92-.03,32.87h-.01Z"></path><path class="st0" d="M227.64,82.32c-3.02,2.57-6.04,5.14-9.07,7.71-.02-12.54-.04-25.08-.05-37.62,0-7.52.03-15.05-.03-22.57,0-1.3.21-1.87,1.68-1.77,1.98.14,3.98.12,5.96,0,1.29-.08,1.5.39,1.5,1.57-.04,17.09-.03,34.18-.02,51.26,0,.47.02.93.03,1.4v.02Z"></path><path class="st0" d="M228.26,93.2c2.01-2.01,4.16-3.86,6.43-5.57,13.22,11.92,26.44,23.85,39.93,36.01h-12.06c-.56,0-.8-.42-1.13-.72-8.94-7.99-17.88-16-26.81-24-2.12-1.9-4.24-3.82-6.36-5.73h0Z"></path><path class="st0" d="M218.47,101.58c2.91-2.73,5.92-5.36,9.09-7.78,0,9.6.02,19.2.06,28.8,0,.86-.27,1.08-1.09,1.06-2.21-.05-4.43-.1-6.64.01-1.25.06-1.39-.44-1.39-1.5.02-6.87,0-13.73-.03-20.6h0Z"></path></g></g><circle class="st3" cx="285.68" cy="36.38" r="11.26"></circle><metadata></metadata></svg>