<svg width="46" height="67" viewBox="0 0 46 67" fill="none" xmlns="http://www.w3.org/2000/svg">
<path d="M39.2502 67C42.978 67 46 64.0003 46 60.3C46 56.5997 42.978 53.6 39.2502 53.6C35.5224 53.6 32.5004 56.5997 32.5004 60.3C32.5004 64.0003 35.5224 67 39.2502 67Z" fill="#F95858"/>
<path d="M16.3478 46.5514C22.3952 41.7491 26.2969 34.3908 26.2969 26.1029C26.2969 11.7347 14.514 0 0 0V11.3861C8.19338 11.3861 14.8651 18.0087 14.8651 26.1416C14.8651 34.2746 8.19338 40.8584 0 40.8584V52.2445C8.19338 52.2445 14.8651 58.8671 14.8651 67H26.3359C26.2969 58.7121 22.4343 51.3538 16.3478 46.5514Z" fill="#F95858"/>
</svg>
